<svg xmlns="http://www.w3.org/2000/svg" viewBox="0 0 480 320" width="480" height="320" role="img" aria-labelledby="title"><title id="title">An open field notebook: the incident journal, with stream sketches and tick marks</title>
<rect x="56" y="44" width="368" height="236" rx="16" fill="#7F5447"/><path d="M70 62Q70 54 78 54Q160 50 238 60V268Q160 258 78 262Q70 262 70 254Z" fill="#F7F4EF"/><path d="M410 62Q410 54 402 54Q320 50 242 60V268Q320 258 402 262Q410 262 410 254Z" fill="#F7F4EF"/><path d="M240 60V268" stroke="#5E3D33" stroke-width="3"/><path d="M86 90Q160 87 226 91M254 91Q320 87 394 90M86 112Q160 109 226 113M254 113Q320 109 394 112M86 134Q160 131 226 135M254 135Q320 131 394 134M86 156Q160 153 226 157M254 157Q320 153 394 156M86 178Q160 175 226 179M254 179Q320 175 394 178M86 200Q160 197 226 201M254 201Q320 197 394 200M86 222Q160 219 226 223M254 223Q320 219 394 222" stroke="#E4DDD2" stroke-width="3" stroke-linecap="round" fill="none"/><path d="M92 150C112 138 132 138 152 150S192 162 212 150" fill="none" stroke="#048DFC" stroke-width="3" stroke-linecap="round"/><path d="M92 176C112 164 132 164 152 176S192 188 212 176" fill="none" stroke="#04BDFD" stroke-width="3" stroke-linecap="round"/><path d="M100 163H116M126 163H150M176 163H190" stroke="#A9BAD5" stroke-width="3" stroke-linecap="round"/><g stroke-linejoin="round"><polygon points="143.9 120.3 148.8 111.6 158.8 109.1 166.2 114.1 174.9 112.8 177.4 122.8 172.4 132.7 162.5 136.4 151.3 135.2 143.3 129" fill="#F7F4EF" stroke="#7F5447" stroke-width="3"/><polyline points="155 127.7 160 124 165 129 169.9 125.2" fill="none" stroke="#7F5447" stroke-width="3" stroke-linecap="round"/></g><ellipse cx="160" cy="124" rx="30" ry="22" fill="none" stroke="#04183F" stroke-width="3" stroke-dasharray="0 7" stroke-linecap="round"/><path d="M192 112C202 102 210 98 220 96" fill="none" stroke="#04183F" stroke-width="3" stroke-linecap="round"/><path d="M92 212H150M92 234H128" stroke="#A9BAD5" stroke-width="3" stroke-linecap="round"/><rect x="258" y="77" width="18" height="18" rx="5" fill="none" stroke="#04183F" stroke-width="3"/><path d="M262 86L266 90L273 81" fill="none" stroke="#048DFC" stroke-width="3" stroke-linecap="round" stroke-linejoin="round"/><path d="M288 86H330" stroke="#04183F" stroke-width="3" stroke-linecap="round"/><path d="M336 86H386" stroke="#A9BAD5" stroke-width="3" stroke-linecap="round"/><rect x="258" y="107" width="18" height="18" rx="5" fill="none" stroke="#04183F" stroke-width="3"/><path d="M262 116L266 120L273 111" fill="none" stroke="#048DFC" stroke-width="3" stroke-linecap="round" stroke-linejoin="round"/><path d="M288 116H367" stroke="#04183F" stroke-width="3" stroke-linecap="round"/><path d="M343 116H386" stroke="#A9BAD5" stroke-width="3" stroke-linecap="round"/><rect x="258" y="137" width="18" height="18" rx="5" fill="none" stroke="#04183F" stroke-width="3"/><path d="M262 146L266 150L273 141" fill="none" stroke="#048DFC" stroke-width="3" stroke-linecap="round" stroke-linejoin="round"/><path d="M288 146H364" stroke="#04183F" stroke-width="3" stroke-linecap="round"/><path d="M350 146H386" stroke="#A9BAD5" stroke-width="3" stroke-linecap="round"/><rect x="258" y="167" width="18" height="18" rx="5" fill="none" stroke="#04183F" stroke-width="3"/><path d="M288 176H361" stroke="#04183F" stroke-width="3" stroke-linecap="round"/><path d="M357 176H386" stroke="#A9BAD5" stroke-width="3" stroke-linecap="round"/><path d="M262 212V236M272 212V236M282 212V236M292 212V236M256 232L300 214" stroke="#04183F" stroke-width="3" stroke-linecap="round"/><path d="M318 212V236M328 212V236" stroke="#04183F" stroke-width="3" stroke-linecap="round"/><path d="M196 262V300L205 292L214 300V260" fill="#048DFC"/><rect x="392" y="44" width="10" height="236" fill="#04183F"/><g transform="translate(372 262) rotate(-38)"><rect x="-6" y="-9" width="88" height="18" rx="4" fill="#04BDFD"/><rect x="70" y="-9" width="14" height="18" rx="4" fill="#A9BAD5"/><path d="M-6 -9L-26 0L-6 9Z" fill="#EBE6DF" stroke="#EBE6DF" stroke-width="3" stroke-linejoin="round"/><path d="M-19 -3.2L-27 0L-19 3.2Z" fill="#04183F" stroke="#04183F" stroke-width="3" stroke-linejoin="round"/></g><path transform="translate(40 60) rotate(-30)" d="M0 -10.5C2.5 -6.2 5 -3.7 5 0A5 5 0 0 1 -5 0C-5 -3.7 -2.5 -6.2 0 -10.5Z" fill="#04BDFD"/><circle cx="30" cy="82" r="3.5" fill="#048DFC"/><path transform="translate(446 250) rotate(30)" d="M0 -8.4C2 -5 4 -3 4 0A4 4 0 0 1 -4 0C-4 -3 -2 -5 0 -8.4Z" fill="#04BDFD"/>
</svg>
